<?xml version="1.0" encoding="UTF-8" standalone="no"?>
<svg
   xmlns:dc="http://purl.org/dc/elements/1.1/"
   xmlns:cc="http://creativecommons.org/ns#"
   xmlns:rdf="http://www.w3.org/1999/02/22-rdf-syntax-ns#"
   xmlns:svg="http://www.w3.org/2000/svg"
   xmlns="http://www.w3.org/2000/svg"
   xmlns:xlink="http://www.w3.org/1999/xlink"
   xmlns:sodipodi="http://sodipodi.sourceforge.net/DTD/sodipodi-0.dtd"
   xmlns:inkscape="http://www.inkscape.org/namespaces/inkscape"
   version="1.1"
   id="svg2"
   width="195.66667"
   height="184.66667"
   viewBox="0 0 195.66667 184.66667"
   sodipodi:docname="angry.svg"
   inkscape:version="1.0.2 (e86c870879, 2021-01-15, custom)">
  <metadata
     id="metadata8">
    <rdf:RDF>
      <cc:Work
         rdf:about="">
        <dc:format>image/svg+xml</dc:format>
        <dc:type
           rdf:resource="http://purl.org/dc/dcmitype/StillImage" />
        <dc:title />
      </cc:Work>
    </rdf:RDF>
  </metadata>
  <defs
     id="defs6">
    <linearGradient
       inkscape:collect="always"
       id="linearGradient934">
      <stop
         style="stop-color:#10221a;stop-opacity:1"
         offset="0"
         id="stop930" />
      <stop
         style="stop-color:#510202;stop-opacity:1"
         offset="1"
         id="stop932" />
    </linearGradient>
    <linearGradient
       inkscape:collect="always"
       id="linearGradient1163">
      <stop
         style="stop-color:#1e190d;stop-opacity:1"
         offset="0"
         id="stop1159" />
      <stop
         style="stop-color:#916a03;stop-opacity:1"
         offset="1"
         id="stop1161" />
    </linearGradient>
    <inkscape:perspective
       sodipodi:type="inkscape:persp3d"
       inkscape:vp_x="0 : 92.333335 : 1"
       inkscape:vp_y="0 : 1000 : 0"
       inkscape:vp_z="195.66667 : 92.333335 : 1"
       inkscape:persp3d-origin="97.833335 : 61.555557 : 1"
       id="perspective36" />
    <linearGradient
       inkscape:collect="always"
       xlink:href="#linearGradient1163"
       id="linearGradient1165"
       x1="90.474609"
       y1="62.197266"
       x2="90.47908"
       y2="80.065453"
       gradientUnits="userSpaceOnUse"
       gradientTransform="translate(237.62443,-1.962332)" />
    <linearGradient
       inkscape:collect="always"
       xlink:href="#linearGradient934"
       id="linearGradient1065"
       x1="-32.7206"
       y1="13.595834"
       x2="-32.978714"
       y2="35.759754"
       gradientUnits="userSpaceOnUse"
       gradientTransform="matrix(1,0,0,1.0329496,138.86671,49.916876)" />
    <linearGradient
       inkscape:collect="always"
       xlink:href="#linearGradient934"
       id="linearGradient901"
       gradientUnits="userSpaceOnUse"
       gradientTransform="matrix(-1,0,0,1.0329496,112.88584,49.89818)"
       x1="-32.7206"
       y1="13.595834"
       x2="-32.978714"
       y2="35.759754" />
  </defs>
  <sodipodi:namedview
     pagecolor="#ffffff"
     bordercolor="#666666"
     borderopacity="1"
     objecttolerance="10"
     gridtolerance="10"
     guidetolerance="10"
     inkscape:pageopacity="0"
     inkscape:pageshadow="2"
     inkscape:window-width="2560"
     inkscape:window-height="1440"
     id="namedview4"
     showgrid="false"
     inkscape:snap-page="false"
     inkscape:snap-bbox="true"
     inkscape:bbox-paths="true"
     inkscape:bbox-nodes="true"
     inkscape:snap-bbox-edge-midpoints="true"
     inkscape:snap-bbox-midpoints="true"
     inkscape:zoom="2.4495056"
     inkscape:cx="100.85764"
     inkscape:cy="74.737746"
     inkscape:window-x="2560"
     inkscape:window-y="0"
     inkscape:window-maximized="0"
     inkscape:current-layer="g10"
     inkscape:document-rotation="0" />
  <g
     inkscape:groupmode="layer"
     inkscape:label="Image"
     id="g10">
    <rect
       style="fill:#e0e0e0;fill-opacity:1;fill-rule:evenodd;stroke-width:0.539766"
       id="rect14"
       width="128.12163"
       height="36.682812"
       x="55.771866"
       y="122.46861" />
    <rect
       style="fill:#383838;fill-opacity:1;stroke-width:1.24305"
       id="rect38"
       width="128.12163"
       height="87.935646"
       x="55.771866"
       y="34.532967" />
    <rect
       style="fill:#0f0f0f;fill-opacity:1;stroke-width:0.628142;stroke-miterlimit:4;stroke-dasharray:none"
       id="rect984"
       width="26.274645"
       height="7.4858985"
       x="149.52281"
       y="131.88173"
       ry="1.1794556" />
    <path
       style="fill:#898989;fill-opacity:1;stroke:#000000;stroke-width:0;stroke-linecap:butt;stroke-linejoin:miter;stroke-miterlimit:4;stroke-dasharray:none;stroke-opacity:1"
       d="M 55.77187,159.15142 34.3294,149.89067 V 23.918908 l 21.44247,10.614059 z"
       id="path986"
       sodipodi:nodetypes="ccccc" />
    <path
       style="fill:#c9c9c9;fill-opacity:1;stroke:#000000;stroke-width:0;stroke-linecap:butt;stroke-linejoin:miter;stroke-miterlimit:4;stroke-dasharray:none;stroke-opacity:1"
       d="M 34.329391,23.91881 H 151.38862 l 32.50487,10.614156 H 55.771861 Z"
       id="path988"
       sodipodi:nodetypes="ccccc" />
    <path
       style="fill:#0f0f0f;fill-opacity:1;stroke:#000000;stroke-width:0;stroke-linecap:butt;stroke-linejoin:miter;stroke-miterlimit:4;stroke-dasharray:none;stroke-opacity:1"
       d="m 34.3294,38.748259 -20.833,14.17278 V 123.212 l 20.833,26.67867 z"
       id="path990"
       sodipodi:nodetypes="ccccc" />
    <path
       id="rect984-5"
       style="fill:#0f0f0f;fill-opacity:1;stroke-width:0.628142;stroke-miterlimit:4;stroke-dasharray:none"
       d="m 40.37421,37.361016 8.66408,4.778728 c 0.57216,0.315577 1.05107,1.061174 1.05107,1.714593 v 5.126987 c 0,0.653419 -0.47891,0.959899 -1.05107,0.64432 l -8.66408,-4.778728 c -0.57216,-0.315577 -1.05107,-1.061173 -1.05107,-1.714593 v -5.126987 c 0,-0.653418 0.47891,-0.959898 1.05107,-0.64432 z"
       sodipodi:nodetypes="sssssssss" />
    <path
       id="rect984-5-3"
       style="fill:#0f0f0f;fill-opacity:1;stroke-width:0.628142;stroke-miterlimit:4;stroke-dasharray:none"
       d="m 40.37421,48.205891 8.66408,4.778728 c 0.57216,0.315577 1.05107,1.061175 1.05107,1.714593 v 5.126987 c 0,0.653419 -0.47891,0.959899 -1.05107,0.64432 l -8.66408,-4.778728 c -0.57216,-0.315577 -1.05107,-1.061173 -1.05107,-1.714593 v -5.126987 c 0,-0.653418 0.47891,-0.959898 1.05107,-0.64432 z"
       sodipodi:nodetypes="sssssssss" />
    <path
       id="rect984-5-5"
       style="fill:#0f0f0f;fill-opacity:1;stroke-width:0.628142;stroke-miterlimit:4;stroke-dasharray:none"
       d="m 40.37421,59.050757 8.66408,4.778728 c 0.57216,0.315577 1.05107,1.061174 1.05107,1.714592 v 5.126987 c 0,0.653419 -0.47891,0.959899 -1.05107,0.64432 l -8.66408,-4.778728 c -0.57216,-0.315577 -1.05107,-1.061173 -1.05107,-1.714592 v -5.126987 c 0,-0.653418 0.47891,-0.959898 1.05107,-0.64432 z"
       sodipodi:nodetypes="sssssssss" />
    <rect
       style="fill:#ff5151;fill-opacity:1;stroke-width:1.08241;stroke-miterlimit:4;stroke-dasharray:none"
       id="rect38-7-7"
       width="113.74007"
       height="75.15609"
       x="62.962646"
       y="40.922745"
       ry="5.0525417" />
    <path
       id="rect48"
       style="fill:url(#linearGradient1065);fill-opacity:1;stroke-width:1.01634"
       d="m 100.34381,63.10379 11.08842,6.16995 c 1.19662,0.66584 2.47182,1.10243 2.47182,2.47182 v 12.63753 c 0,1.36939 -1.10243,2.47182 -2.47182,2.47182 h -11.08842 c -1.369389,0 -2.471819,-1.10243 -2.471819,-2.47182 V 65.57561 c 0,-1.36939 1.1161,-3.22619 2.471819,-2.47182 z"
       sodipodi:nodetypes="sssssssss" />
    <path
       style="fill:none;stroke:#000000;stroke-width:5.4;stroke-linecap:round;stroke-linejoin:miter;stroke-miterlimit:4;stroke-dasharray:none;stroke-opacity:1"
       d="m 142.19584,100.47074 c -8.25722,-8.257217 -23.6441,-8.583277 -33.09325,-0.45741"
       id="path1057"
       sodipodi:nodetypes="cc" />
    <path
       id="rect48-75"
       style="fill:url(#linearGradient901);fill-opacity:1;stroke-width:1.01634"
       d="m 151.40874,63.0851 -11.08842,6.16995 c -1.19662,0.66584 -2.47182,1.10243 -2.47182,2.47182 V 84.3644 c 0,1.36939 1.10243,2.47182 2.47182,2.47182 h 11.08842 c 1.36939,0 2.47182,-1.10243 2.47182,-2.47182 V 65.55692 c 0,-1.36939 -1.1161,-3.22619 -2.47182,-2.47182 z"
       sodipodi:nodetypes="sssssssss" />
    <path
       style="fill:none;stroke:#000000;stroke-width:5.5;stroke-linecap:butt;stroke-linejoin:miter;stroke-miterlimit:4;stroke-dasharray:none;stroke-opacity:1"
       d="m 97.545781,54.31165 17.098309,9.36314"
       id="path904"
       sodipodi:nodetypes="cc" />
    <path
       style="fill:none;stroke:#000000;stroke-width:5.5;stroke-linecap:butt;stroke-linejoin:miter;stroke-miterlimit:4;stroke-dasharray:none;stroke-opacity:1"
       d="M 153.30357,54.18565 136.20526,63.5488"
       id="path904-3"
       sodipodi:nodetypes="cc" />
  </g>
</svg>
