<?xml version="1.0" encoding="UTF-8" standalone="no"?>
<svg
   xmlns:dc="http://purl.org/dc/elements/1.1/"
   xmlns:cc="http://creativecommons.org/ns#"
   xmlns:rdf="http://www.w3.org/1999/02/22-rdf-syntax-ns#"
   xmlns:svg="http://www.w3.org/2000/svg"
   xmlns="http://www.w3.org/2000/svg"
   xmlns:xlink="http://www.w3.org/1999/xlink"
   xmlns:sodipodi="http://sodipodi.sourceforge.net/DTD/sodipodi-0.dtd"
   xmlns:inkscape="http://www.inkscape.org/namespaces/inkscape"
   version="1.1"
   id="svg2"
   width="195.66667"
   height="184.66667"
   viewBox="0 0 195.66667 184.66667"
   sodipodi:docname="sad.svg"
   inkscape:version="1.0.2 (e86c870879, 2021-01-15, custom)">
  <metadata
     id="metadata8">
    <rdf:RDF>
      <cc:Work
         rdf:about="">
        <dc:format>image/svg+xml</dc:format>
        <dc:type
           rdf:resource="http://purl.org/dc/dcmitype/StillImage" />
        <dc:title />
      </cc:Work>
    </rdf:RDF>
  </metadata>
  <defs
     id="defs6">
    <linearGradient
       inkscape:collect="always"
       id="linearGradient934">
      <stop
         style="stop-color:#10221a;stop-opacity:1"
         offset="0"
         id="stop930" />
      <stop
         style="stop-color:#013787;stop-opacity:1"
         offset="1"
         id="stop932" />
    </linearGradient>
    <linearGradient
       inkscape:collect="always"
       id="linearGradient1163">
      <stop
         style="stop-color:#1e190d;stop-opacity:1"
         offset="0"
         id="stop1159" />
      <stop
         style="stop-color:#916a03;stop-opacity:1"
         offset="1"
         id="stop1161" />
    </linearGradient>
    <inkscape:perspective
       sodipodi:type="inkscape:persp3d"
       inkscape:vp_x="0 : 92.333335 : 1"
       inkscape:vp_y="0 : 1000 : 0"
       inkscape:vp_z="195.66667 : 92.333335 : 1"
       inkscape:persp3d-origin="97.833335 : 61.555557 : 1"
       id="perspective36" />
    <linearGradient
       inkscape:collect="always"
       xlink:href="#linearGradient1163"
       id="linearGradient1165"
       x1="90.474609"
       y1="62.197266"
       x2="90.47908"
       y2="80.065453"
       gradientUnits="userSpaceOnUse"
       gradientTransform="translate(237.62443,-1.962332)" />
    <linearGradient
       inkscape:collect="always"
       xlink:href="#linearGradient934"
       id="linearGradient900"
       gradientUnits="userSpaceOnUse"
       gradientTransform="matrix(1,0,0,1.0329496,179.62368,48.443448)"
       x1="-32.7206"
       y1="13.595834"
       x2="-32.978714"
       y2="35.759754" />
    <linearGradient
       inkscape:collect="always"
       xlink:href="#linearGradient934"
       id="linearGradient930"
       gradientUnits="userSpaceOnUse"
       gradientTransform="matrix(-1,0,0,1.0329496,69.36518,48.191276)"
       x1="-32.7206"
       y1="13.595834"
       x2="-32.978714"
       y2="35.759754" />
  </defs>
  <sodipodi:namedview
     pagecolor="#ffffff"
     bordercolor="#666666"
     borderopacity="1"
     objecttolerance="10"
     gridtolerance="10"
     guidetolerance="10"
     inkscape:pageopacity="0"
     inkscape:pageshadow="2"
     inkscape:window-width="2560"
     inkscape:window-height="1440"
     id="namedview4"
     showgrid="false"
     inkscape:snap-page="false"
     inkscape:snap-bbox="true"
     inkscape:bbox-paths="true"
     inkscape:bbox-nodes="true"
     inkscape:snap-bbox-edge-midpoints="true"
     inkscape:snap-bbox-midpoints="true"
     inkscape:zoom="13.856496"
     inkscape:cx="184.68033"
     inkscape:cy="79.772749"
     inkscape:window-x="2560"
     inkscape:window-y="0"
     inkscape:window-maximized="0"
     inkscape:current-layer="g10"
     inkscape:document-rotation="0" />
  <g
     inkscape:groupmode="layer"
     inkscape:label="Image"
     id="g10">
    <rect
       style="fill:#e0e0e0;fill-opacity:1;fill-rule:evenodd;stroke-width:0.539766"
       id="rect14"
       width="128.12163"
       height="36.682812"
       x="55.771866"
       y="122.46861" />
    <rect
       style="fill:#383838;fill-opacity:1;stroke-width:1.24305"
       id="rect38"
       width="128.12163"
       height="87.935646"
       x="55.771866"
       y="34.532967" />
    <rect
       style="fill:#0f0f0f;fill-opacity:1;stroke-width:0.628142;stroke-miterlimit:4;stroke-dasharray:none"
       id="rect984"
       width="26.274645"
       height="7.4858985"
       x="149.52281"
       y="131.88173"
       ry="1.1794556" />
    <path
       style="fill:#898989;fill-opacity:1;stroke:#000000;stroke-width:0;stroke-linecap:butt;stroke-linejoin:miter;stroke-miterlimit:4;stroke-dasharray:none;stroke-opacity:1"
       d="M 55.77187,159.15142 34.3294,149.89067 V 23.918908 l 21.44247,10.614059 z"
       id="path986"
       sodipodi:nodetypes="ccccc" />
    <path
       style="fill:#c9c9c9;fill-opacity:1;stroke:#000000;stroke-width:0;stroke-linecap:butt;stroke-linejoin:miter;stroke-miterlimit:4;stroke-dasharray:none;stroke-opacity:1"
       d="M 34.329391,23.91881 H 151.38862 l 32.50487,10.614156 H 55.771861 Z"
       id="path988"
       sodipodi:nodetypes="ccccc" />
    <path
       style="fill:#0f0f0f;fill-opacity:1;stroke:#000000;stroke-width:0;stroke-linecap:butt;stroke-linejoin:miter;stroke-miterlimit:4;stroke-dasharray:none;stroke-opacity:1"
       d="m 34.3294,38.748259 -20.833,14.17278 V 123.212 l 20.833,26.67867 z"
       id="path990"
       sodipodi:nodetypes="ccccc" />
    <path
       id="rect984-5"
       style="fill:#0f0f0f;fill-opacity:1;stroke-width:0.628142;stroke-miterlimit:4;stroke-dasharray:none"
       d="m 40.37421,37.361016 8.66408,4.778728 c 0.57216,0.315577 1.05107,1.061174 1.05107,1.714593 v 5.126987 c 0,0.653419 -0.47891,0.959899 -1.05107,0.64432 l -8.66408,-4.778728 c -0.57216,-0.315577 -1.05107,-1.061173 -1.05107,-1.714593 v -5.126987 c 0,-0.653418 0.47891,-0.959898 1.05107,-0.64432 z"
       sodipodi:nodetypes="sssssssss" />
    <path
       id="rect984-5-3"
       style="fill:#0f0f0f;fill-opacity:1;stroke-width:0.628142;stroke-miterlimit:4;stroke-dasharray:none"
       d="m 40.37421,48.205891 8.66408,4.778728 c 0.57216,0.315577 1.05107,1.061175 1.05107,1.714593 v 5.126987 c 0,0.653419 -0.47891,0.959899 -1.05107,0.64432 l -8.66408,-4.778728 c -0.57216,-0.315577 -1.05107,-1.061173 -1.05107,-1.714593 v -5.126987 c 0,-0.653418 0.47891,-0.959898 1.05107,-0.64432 z"
       sodipodi:nodetypes="sssssssss" />
    <path
       id="rect984-5-5"
       style="fill:#0f0f0f;fill-opacity:1;stroke-width:0.628142;stroke-miterlimit:4;stroke-dasharray:none"
       d="m 40.37421,59.050757 8.66408,4.778728 c 0.57216,0.315577 1.05107,1.061174 1.05107,1.714592 v 5.126987 c 0,0.653419 -0.47891,0.959899 -1.05107,0.64432 l -8.66408,-4.778728 c -0.57216,-0.315577 -1.05107,-1.061173 -1.05107,-1.714592 v -5.126987 c 0,-0.653418 0.47891,-0.959898 1.05107,-0.64432 z"
       sodipodi:nodetypes="sssssssss" />
    <rect
       style="fill:#6da8ff;fill-opacity:1;stroke-width:1.08241;stroke-miterlimit:4;stroke-dasharray:none"
       id="rect38-7-7"
       width="113.74007"
       height="75.15609"
       x="62.962646"
       y="40.922745"
       ry="5.0525417" />
    <path
       id="rect48-75"
       style="fill:url(#linearGradient900);fill-opacity:1;stroke-width:1.01634"
       d="m 141.10075,61.630357 11.08842,4.283932 c 1.27737,0.493504 2.47183,1.102432 2.47183,2.471821 v 14.523545 c 0,1.369389 -1.10244,2.471822 -2.47183,2.471822 h -11.08842 c -1.36939,0 -2.47182,-1.102433 -2.47182,-2.471822 V 64.102178 c 0,-1.369389 1.19445,-2.965325 2.47182,-2.471821 z"
       sodipodi:nodetypes="sssssssss" />
    <path
       id="rect48-75-6"
       style="fill:url(#linearGradient930);fill-opacity:1;stroke-width:1.01634"
       d="m 107.8881,61.378185 -11.08842,4.283932 c -1.27737,0.493504 -2.47182,1.102432 -2.47182,2.471821 v 14.523545 c 0,1.369389 1.10243,2.471822 2.47182,2.471822 h 11.08842 c 1.36939,0 2.47182,-1.102433 2.47182,-2.471822 V 63.850006 c 0,-1.369389 -1.19445,-2.965325 -2.47182,-2.471821 z"
       sodipodi:nodetypes="sssssssss" />
    <path
       style="fill:none;stroke:#000000;stroke-width:5.4;stroke-linecap:round;stroke-linejoin:miter;stroke-miterlimit:4;stroke-dasharray:none;stroke-opacity:1"
       d="m 137.02078,99.171948 c -5.978,-5.910557 -20.31597,-7.848357 -28.09421,-4.095917"
       id="path1057-2"
       sodipodi:nodetypes="cc" />
    <path
       style="fill:#bad6ff;fill-opacity:1;stroke:none;stroke-width:1.04412px;stroke-linecap:butt;stroke-linejoin:miter;stroke-opacity:1"
       d="m 150.51816,83.140458 c -4.91246,7.23477 -8.14714,16.403803 -0.0328,16.403803 6.73681,0 4.2536,-9.093123 0.0328,-16.403803 z"
       id="path976"
       sodipodi:nodetypes="csc" />
  </g>
</svg>
